<svg width="142" height="20" viewBox="0 0 142 20" fill="none" xmlns="http://www.w3.org/2000/svg">
<path d="M0 15V14.08L2.03 13.72L2.05 7.46L2.03 1.39L0 1.05V0H6.31C7.71 0 8.74333 0.306667 9.41 0.92C10.0833 1.52667 10.42 2.38 10.42 3.48C10.42 4.69333 10.01 5.68 9.19 6.44C8.37 7.2 7.40667 7.58 6.3 7.58C5.85333 7.58 5.27667 7.56667 4.57 7.54C3.86333 7.51333 3.32333 7.48333 2.95 7.45V6.57H5.54C6.56 6.57 7.3 6.3 7.76 5.76C8.22 5.22 8.45 4.49667 8.45 3.59C8.45 2.79 8.25 2.17333 7.85 1.74C7.45 1.30667 6.80333 1.09 5.91 1.09H4.13L3.85 1.27L3.81 7.46L3.83 13.72L5.94 14.08V15H0ZM5.46 7.45L6.84 6.56L10.31 11.89C10.9233 12.8167 11.4633 13.4133 11.93 13.68C12.4033 13.94 12.83 14.0733 13.21 14.08V15H10.67L9.95 14.3L5.46 7.45Z" fill="#121212"/>
<path d="M13.57 10.03C13.57 8.57667 14.0033 7.34667 14.87 6.34C15.7367 5.33333 16.87 4.83 18.27 4.83C19.55 4.83 20.5533 5.21333 21.28 5.98C22.0067 6.74667 22.4367 7.81 22.57 9.17H20.93C20.85 8.13 20.57 7.32333 20.09 6.75C19.6167 6.17 18.9333 5.88 18.04 5.88C17.2467 5.88 16.6 6.23 16.1 6.93C15.6067 7.62333 15.3633 8.58667 15.37 9.82C15.3767 11.2067 15.7033 12.25 16.35 12.95C16.9967 13.65 17.8333 14 18.86 14C19.54 14 20.1 13.9233 20.54 13.77C20.9867 13.6167 21.38 13.4067 21.72 13.14L22.19 13.69C21.8833 14.1167 21.4433 14.48 20.87 14.78C20.2967 15.0733 19.58 15.22 18.72 15.22C17.1933 15.22 15.9533 14.7433 15 13.79C14.0467 12.8367 13.57 11.5833 13.57 10.03ZM15.07 9.73V8.84H22.04L22.57 9.17V9.73H15.07Z" fill="#121212"/>
<path d="M23.4528 10.27C23.4528 8.73 23.9195 7.44 24.8528 6.4C25.7861 5.35333 26.8895 4.83 28.1628 4.83C28.9428 4.83 29.6128 4.94333 30.1728 5.17C30.7328 5.39 31.1895 5.70333 31.5428 6.11L30.3728 7.2C30.3061 6.83333 30.0661 6.52 29.6528 6.26C29.2461 5.99333 28.7495 5.86 28.1628 5.86C27.3628 5.86 26.6761 6.21 26.1028 6.91C25.5295 7.61 25.2461 8.66 25.2528 10.06C25.2595 11.3 25.6095 12.2667 26.3028 12.96C26.9961 13.6533 27.8528 14 28.8728 14C29.5528 14 30.1295 13.88 30.6028 13.64C31.0761 13.4 31.4895 13.1 31.8428 12.74L32.3228 13.29C32.0095 13.7367 31.5328 14.17 30.8928 14.59C30.2595 15.01 29.3628 15.22 28.2028 15.22C26.8361 15.22 25.7028 14.7667 24.8028 13.86C23.9028 12.9533 23.4528 11.7567 23.4528 10.27ZM30.2128 6.46L30.7628 5.01H31.6028V8.52H30.6928L30.2128 6.46Z" fill="#121212"/>
<path d="M33.5438 15V14.26L35.1838 13.91L35.2038 9.78L35.1338 6.56L33.4938 6.26V5.39L36.2537 5.04H36.6937L36.9338 5.43L36.8638 9.78L36.8838 13.91L38.4338 14.26V15H33.5438ZM34.7438 1.66C34.7438 1.27333 34.8504 0.976667 35.0638 0.77C35.2771 0.556667 35.5871 0.450001 35.9938 0.450001C36.3671 0.450001 36.6671 0.563334 36.8937 0.79C37.1204 1.01 37.2337 1.3 37.2337 1.66C37.2337 2.05333 37.1271 2.35667 36.9137 2.57C36.7004 2.77667 36.3938 2.88 35.9938 2.88C35.6138 2.88 35.3104 2.77 35.0838 2.55C34.8571 2.32333 34.7438 2.02667 34.7438 1.66Z" fill="#121212"/>
<path d="M39.2402 19.78V19.04L40.6502 18.69L40.6702 10.75L40.6502 6.56L39.2002 6.26V5.39L41.7802 5.05L42.1102 5.3L42.3402 6.35L42.3302 10.75L42.3502 18.69L43.8402 19.04V19.78H39.2402ZM41.9202 13.64L42.2902 12.65C42.4969 13.0633 42.8435 13.42 43.3302 13.72C43.8235 14.02 44.4035 14.17 45.0702 14.17C45.9569 14.17 46.6535 13.8033 47.1602 13.07C47.6669 12.3367 47.9202 11.3033 47.9202 9.97C47.9202 8.70333 47.6669 7.73 47.1602 7.05C46.6602 6.37 45.9802 6.03 45.1202 6.03C44.4469 6.03 43.8702 6.18 43.3902 6.48C42.9169 6.78 42.5502 7.15333 42.2902 7.6L41.9702 7.08C42.2435 6.44667 42.6869 5.91667 43.3002 5.49C43.9135 5.06333 44.6969 4.85 45.6502 4.85C46.8369 4.85 47.8169 5.29 48.5902 6.17C49.3702 7.04333 49.7602 8.23 49.7602 9.73C49.7602 11.3567 49.3569 12.6633 48.5502 13.65C47.7435 14.63 46.6602 15.12 45.3002 15.12C44.4469 15.12 43.7202 14.9633 43.1202 14.65C42.5269 14.33 42.1269 13.9933 41.9202 13.64Z" fill="#121212"/>
<path d="M51.4802 10.03C51.4802 8.57667 51.9135 7.34667 52.7802 6.34C53.6468 5.33333 54.7802 4.83 56.1802 4.83C57.4602 4.83 58.4635 5.21333 59.1902 5.98C59.9168 6.74667 60.3468 7.81 60.4802 9.17H58.8402C58.7602 8.13 58.4802 7.32333 58.0002 6.75C57.5268 6.17 56.8435 5.88 55.9502 5.88C55.1568 5.88 54.5102 6.23 54.0102 6.93C53.5168 7.62333 53.2735 8.58667 53.2802 9.82C53.2868 11.2067 53.6135 12.25 54.2602 12.95C54.9068 13.65 55.7435 14 56.7702 14C57.4502 14 58.0102 13.9233 58.4502 13.77C58.8968 13.6167 59.2902 13.4067 59.6302 13.14L60.1002 13.69C59.7935 14.1167 59.3535 14.48 58.7802 14.78C58.2068 15.0733 57.4902 15.22 56.6302 15.22C55.1035 15.22 53.8635 14.7433 52.9102 13.79C51.9568 12.8367 51.4802 11.5833 51.4802 10.03ZM52.9802 9.73V8.84H59.9502L60.4802 9.17V9.73H52.9802Z" fill="#121212"/>
<path d="M67.832 15V14.08L69.862 13.72L69.882 7.16L69.862 1.39L67.832 1.05V0H73.742C75.142 0 76.1754 0.31 76.842 0.930001C77.5154 1.54333 77.852 2.32667 77.852 3.28C77.852 4.18 77.6387 4.93333 77.212 5.54C76.792 6.14667 76.2087 6.53 75.462 6.69V6.76C76.3754 6.94667 77.152 7.36 77.792 8C78.4387 8.63333 78.762 9.52 78.762 10.66C78.762 11.9133 78.332 12.95 77.472 13.77C76.6187 14.59 75.4287 15 73.902 15H67.832ZM71.662 13.74L72.082 13.94H73.362C74.5754 13.94 75.4687 13.6733 76.042 13.14C76.6154 12.6067 76.902 11.76 76.902 10.6C76.902 9.62 76.652 8.86667 76.152 8.34C75.6587 7.81333 74.9454 7.55 74.012 7.55H71.642V7.69L71.662 13.74ZM71.642 6.27L71.632 6.5H73.262C74.1887 6.5 74.8854 6.26 75.352 5.78C75.8254 5.3 76.062 4.59333 76.062 3.66C76.062 2.8 75.8287 2.17667 75.362 1.79C74.902 1.39667 74.2287 1.2 73.342 1.2H71.972L71.682 1.38L71.642 6.27Z" fill="#121212"/>
<path d="M80.233 15V14.26L81.683 13.91L81.703 9.78L81.683 6.56L80.233 6.26V5.39L82.813 5.05L83.153 5.3L83.383 6.33L83.363 9.78L83.383 13.91L84.933 14.26V15H80.233ZM83.143 7.89L82.823 7.32C83.1096 6.66667 83.5863 6.12333 84.253 5.69C84.9196 5.25 85.763 5.03 86.783 5.03L87.743 5.04V7.62H86.753L86.343 6.29C85.7896 6.29 85.2163 6.42 84.623 6.68C84.0363 6.94 83.543 7.34333 83.143 7.89Z" fill="#121212"/>
<path d="M88.6286 10.03C88.6286 8.57667 89.0986 7.34667 90.0386 6.34C90.9786 5.33333 92.2086 4.83 93.7286 4.83C95.2486 4.83 96.4819 5.3 97.4286 6.24C98.3819 7.18 98.8586 8.42333 98.8586 9.97C98.8586 11.41 98.3919 12.6467 97.4586 13.68C96.5319 14.7067 95.3086 15.22 93.7886 15.22C92.2619 15.22 91.0186 14.7433 90.0586 13.79C89.1053 12.8367 88.6286 11.5833 88.6286 10.03ZM90.4286 9.83C90.4353 11.0833 90.7353 12.1267 91.3286 12.96C91.9286 13.7867 92.7219 14.2 93.7086 14.2C94.7619 14.2 95.5719 13.8233 96.1386 13.07C96.7119 12.3167 96.9986 11.2833 96.9986 9.97C96.9986 8.75667 96.6986 7.77667 96.0986 7.03C95.5053 6.27667 94.7153 5.9 93.7286 5.9C92.6619 5.9 91.8419 6.24333 91.2686 6.93C90.7019 7.61 90.4219 8.57667 90.4286 9.83Z" fill="#121212"/>
<path d="M99.3534 5.88V5.05H103.533V5.88L102.233 6.25L103.403 9.82L104.663 13.17L105.753 10.31L107.063 6.43L107.843 7.36L106.513 10.86L104.993 15.08H103.823L102.073 10.26L100.513 6.23L99.3534 5.88ZM104.933 5.88V5.05H109.043V5.88L107.743 6.25L109.093 10.27L110.173 13.15L111.453 9.75L112.653 6.19L111.263 5.88V5.05H115.253V5.88L113.763 6.23L112.283 10.14L110.563 15.08H109.393L107.813 10.69L106.083 6.23L104.933 5.88Z" fill="#121212"/>
<path d="M115.647 15V11.65H116.628L117.158 13.83L116.488 15H115.647ZM116.007 7.44C116.007 6.70667 116.264 6.09 116.777 5.59C117.297 5.08333 118.088 4.83 119.147 4.83C119.901 4.83 120.488 4.93667 120.908 5.15C121.334 5.36333 121.681 5.61 121.948 5.89L121.507 6.63C121.287 6.43 120.961 6.23333 120.528 6.04C120.094 5.84 119.647 5.74 119.188 5.74C118.594 5.74 118.158 5.86667 117.878 6.12C117.604 6.36667 117.467 6.68667 117.467 7.08C117.467 7.49333 117.618 7.82333 117.918 8.07C118.218 8.31 118.884 8.58 119.918 8.88C120.924 9.18 121.731 9.56333 122.338 10.03C122.944 10.49 123.247 11.1967 123.247 12.15C123.247 13.0033 122.927 13.7267 122.287 14.32C121.647 14.9067 120.804 15.2 119.757 15.2C118.817 15.2 118.067 15.02 117.507 14.66C116.948 14.2933 116.438 13.8167 115.978 13.23L116.827 12.67C116.967 13.07 117.298 13.43 117.817 13.75C118.337 14.07 118.911 14.23 119.537 14.23C120.198 14.23 120.731 14.0767 121.137 13.77C121.544 13.4567 121.747 13.0233 121.747 12.47C121.747 11.91 121.531 11.49 121.098 11.21C120.671 10.93 119.921 10.6267 118.848 10.3C117.774 9.97333 117.031 9.59667 116.618 9.17C116.211 8.73667 116.007 8.16 116.007 7.44ZM120.988 6.2L121.558 5.05H122.397V8.01H121.427L120.988 6.2Z" fill="#121212"/>
<path d="M124.332 10.03C124.332 8.57667 124.765 7.34667 125.632 6.34C126.498 5.33333 127.632 4.83 129.032 4.83C130.312 4.83 131.315 5.21333 132.042 5.98C132.768 6.74667 133.198 7.81 133.332 9.17H131.692C131.612 8.13 131.332 7.32333 130.852 6.75C130.378 6.17 129.695 5.88 128.802 5.88C128.008 5.88 127.362 6.23 126.862 6.93C126.368 7.62333 126.125 8.58667 126.132 9.82C126.138 11.2067 126.465 12.25 127.112 12.95C127.758 13.65 128.595 14 129.622 14C130.302 14 130.862 13.9233 131.302 13.77C131.748 13.6167 132.142 13.4067 132.482 13.14L132.952 13.69C132.645 14.1167 132.205 14.48 131.632 14.78C131.058 15.0733 130.342 15.22 129.482 15.22C127.955 15.22 126.715 14.7433 125.762 13.79C124.808 12.8367 124.332 11.5833 124.332 10.03ZM125.832 9.73V8.84H132.802L133.332 9.17V9.73H125.832Z" fill="#121212"/>
<path d="M134.335 15V14.26L135.785 13.91L135.805 9.78L135.785 6.56L134.335 6.26V5.39L136.915 5.05L137.255 5.3L137.485 6.33L137.465 9.78L137.485 13.91L139.035 14.26V15H134.335ZM137.245 7.89L136.925 7.32C137.211 6.66667 137.688 6.12333 138.355 5.69C139.021 5.25 139.865 5.03 140.885 5.03L141.845 5.04V7.62H140.855L140.445 6.29C139.891 6.29 139.318 6.42 138.725 6.68C138.138 6.94 137.645 7.34333 137.245 7.89Z" fill="#121212"/>
</svg>
